<?xml version="1.0" encoding="utf-8"?>
<svg version="1.1" xmlns:xlink="http://www.w3.org/1999/xlink" width="17px" height="30px" xmlns="http://www.w3.org/2000/svg">
  <g transform="matrix(1 0 0 1 -1694 -249 )">
    <path d="M 16.1291759465479 7.62620192307692  C 16.3689680772086 7.62620192307692  16.5835189309577 7.71634615384615  16.7728285077951 7.89663461538462  C 17 8.13701923076923  17.0441722345954 8.40144230769231  16.9053452115813 8.68990384615385  L 6.6826280623608 29.5492788461538  C 6.51855976243504 29.8497596153846  6.25352635486266 30  5.88752783964365 30  C 5.83704528582034 30  5.74870081662955 29.9879807692308  5.62249443207127 29.9639423076923  C 5.4079435783222 29.9038461538462  5.24703043801039 29.7896634615385  5.13975501113586 29.6213942307692  C 5.03247958426132 29.453125  5.00408314773571 29.2728365384615  5.05456570155902 29.0805288461538  L 8.78396436525613 14.5132211538462  L 1.09799554565702 16.3341346153846  C 1.0475129918337 16.3461538461538  0.971789161098738 16.3521634615385  0.870824053452116 16.3521634615385  C 0.643652561247216 16.3521634615385  0.448032665181886 16.2860576923077  0.283964365256125 16.1538461538462  C 0.0567928730512249 15.9735576923077  -0.0252412769116555 15.7391826923077  0.0378619153674833 15.4507211538462  L 3.84298440979955 0.576923076923078  C 3.89346696362287 0.408653846153845  3.99443207126949 0.270432692307694  4.14587973273942 0.162259615384616  C 4.29732739420935 0.0540865384615374  4.47401633259094 0  4.67594654788419 0  L 10.8853006681514 0  C 11.1250927988122 0  11.3270230141054 0.0751201923076883  11.4910913140312 0.225360576923078  C 11.6551596139569 0.375600961538461  11.7371937639198 0.552884615384613  11.7371937639198 0.757211538461537  C 11.7371937639198 0.853365384615383  11.7056421677803 0.961538461538461  11.6425389755011 1.08173076923077  L 8.40534521158129 9.42908653846154  L 15.902004454343 7.66225961538462  C 16.0029695619896 7.63822115384615  16.0786933927246 7.62620192307692  16.1291759465479 7.62620192307692  Z " fill-rule="nonzero" fill="#000000" stroke="none" transform="matrix(1 0 0 1 1694 249 )" />
  </g>
</svg>