<?xml version="1.0" encoding="utf-8"?>
<svg version="1.1" xmlns:xlink="http://www.w3.org/1999/xlink" width="18px" height="15px" xmlns="http://www.w3.org/2000/svg">
  <g transform="matrix(1 0 0 1 -721 -258 )">
    <path d="M 17.77734375 12.22265625  C 17.92578125 12.37109375  18 12.546875  18 12.75  L 18 14.25  C 18 14.453125  17.92578125 14.62890625  17.77734375 14.77734375  C 17.62890625 14.92578125  17.453125 15  17.25 15  L 0.75 15  C 0.546875 15  0.37109375 14.92578125  0.22265625 14.77734375  C 0.07421875 14.62890625  0 14.453125  0 14.25  L 0 12.75  C 0 12.546875  0.07421875 12.37109375  0.22265625 12.22265625  C 0.37109375 12.07421875  0.546875 12  0.75 12  L 17.25 12  C 17.453125 12  17.62890625 12.07421875  17.77734375 12.22265625  Z M 17.77734375 6.22265625  C 17.92578125 6.37109375  18 6.546875  18 6.75  L 18 8.25  C 18 8.453125  17.92578125 8.62890625  17.77734375 8.77734375  C 17.62890625 8.92578125  17.453125 9  17.25 9  L 0.75 9  C 0.546875 9  0.37109375 8.92578125  0.22265625 8.77734375  C 0.07421875 8.62890625  0 8.453125  0 8.25  L 0 6.75  C 0 6.546875  0.07421875 6.37109375  0.22265625 6.22265625  C 0.37109375 6.07421875  0.546875 6  0.75 6  L 17.25 6  C 17.453125 6  17.62890625 6.07421875  17.77734375 6.22265625  Z M 17.77734375 0.222656250000001  C 17.92578125 0.371093749999999  18 0.546874999999999  18 0.750000000000001  L 18 2.25  C 18 2.453125  17.92578125 2.62890625  17.77734375 2.77734375  C 17.62890625 2.92578125  17.453125 3  17.25 3  L 0.75 3  C 0.546875 3  0.37109375 2.92578125  0.22265625 2.77734375  C 0.07421875 2.62890625  0 2.453125  0 2.25  L 0 0.750000000000001  C 0 0.546874999999999  0.07421875 0.371093749999999  0.22265625 0.222656250000001  C 0.37109375 0.0742187499999991  0.546875 0  0.75 0  L 17.25 0  C 17.453125 0  17.62890625 0.0742187499999991  17.77734375 0.222656250000001  Z " fill-rule="nonzero" fill="#000000" stroke="none" transform="matrix(1 0 0 1 721 258 )" />
  </g>
</svg>