<?xml version="1.0" encoding="utf-8"?>
<svg version="1.1" xmlns:xlink="http://www.w3.org/1999/xlink" width="238px" height="238px" xmlns="http://www.w3.org/2000/svg">
  <g transform="matrix(1 0 0 1 -1413 -277 )">
    <path d="M 1532 277.5  C 1598.36 277.5  1650.5 329.64  1650.5 396  C 1650.5 462.36  1598.36 514.5  1532 514.5  C 1465.64 514.5  1413.5 462.36  1413.5 396  C 1413.5 329.64  1465.64 277.5  1532 277.5  Z " fill-rule="nonzero" fill="#ffffff" stroke="none" />
    <path d="M 1532 277.5  C 1598.36 277.5  1650.5 329.64  1650.5 396  C 1650.5 462.36  1598.36 514.5  1532 514.5  C 1465.64 514.5  1413.5 462.36  1413.5 396  C 1413.5 329.64  1465.64 277.5  1532 277.5  Z " stroke-width="1" stroke-dasharray="9,4" stroke="#797979" fill="none" stroke-dashoffset="0.5" />
  </g>
</svg>