<?xml version="1.0" encoding="utf-8"?>
<svg version="1.1" xmlns:xlink="http://www.w3.org/1999/xlink" width="24px" height="24px" xmlns="http://www.w3.org/2000/svg">
  <g transform="matrix(1 0 0 1 -1479 -715 )">
    <path d="M 6.5029702970297 6.5029702970297  C 6.8990099009901 6.10693069306931  7.0970297029703 5.62904290429043  7.0970297029703 5.06930693069307  C 7.0970297029703 4.50957095709571  6.8990099009901 4.03168316831683  6.5029702970297 3.63564356435644  C 6.10693069306931 3.23960396039604  5.62904290429043 3.04158415841584  5.06930693069307 3.04158415841584  C 4.50957095709571 3.04158415841584  4.03168316831683 3.23960396039604  3.63564356435644 3.63564356435644  C 3.23960396039604 4.03168316831683  3.04158415841584 4.50957095709571  3.04158415841584 5.06930693069307  C 3.04158415841584 5.62904290429043  3.23960396039604 6.10693069306931  3.63564356435644 6.5029702970297  C 4.03168316831683 6.8990099009901  4.50957095709571 7.0970297029703  5.06930693069307 7.0970297029703  C 5.62904290429043 7.0970297029703  6.10693069306931 6.8990099009901  6.5029702970297 6.5029702970297  Z M 23.4138613861386 12.7524752475248  C 23.8046204620462 13.1643564356436  24 13.6448844884488  24 14.1940594059406  C 24 14.753795379538  23.8046204620462 15.2290429042904  23.4138613861386 15.619801980198  L 15.6356435643564 23.4138613861386  C 15.2237623762376 23.8046204620462  14.7432343234323 24  14.1940594059406 24  C 13.6343234323432 24  13.1590759075908 23.8046204620462  12.7683168316832 23.4138613861386  L 1.44158415841584 12.0712871287129  C 1.04026402640264 11.6805280528053  0.6996699669967 11.1471947194719  0.41980198019802 10.4712871287129  C 0.13993399339934 9.7953795379538  0 9.17755775577558  0 8.61782178217822  L 0 2.02772277227723  C 0 1.47854785478548  0.200660066006601 1.003300330033  0.601980198019802 0.601980198019801  C 1.003300330033 0.200660066006598  1.47854785478548 0  2.02772277227723 0  L 8.61782178217822 0  C 9.17755775577558 0  9.7953795379538 0.139933993399338  10.4712871287129 0.419801980198019  C 11.1471947194719 0.699669966996698  11.6858085808581 1.04026402640264  12.0871287128713 1.44158415841584  L 23.4138613861386 12.7524752475248  Z " fill-rule="nonzero" fill="#555555" stroke="none" transform="matrix(1 0 0 1 1479 715 )" />
  </g>
</svg>