<?xml version="1.0" encoding="utf-8"?>
<svg version="1.1" xmlns:xlink="http://www.w3.org/1999/xlink" width="32px" height="21px" xmlns="http://www.w3.org/2000/svg">
  <g transform="matrix(1 0 0 1 -1518 -591 )">
    <path d="M 25.0666666666667 16.8  L 6.93333333333333 16.8  C 6.2 16.8  5.57222222222222 16.54296875  5.05 16.02890625  C 4.52777777777778 15.51484375  4.26666666666667 14.896875  4.26666666666667 14.175  L 4.26666666666667 2.625  C 4.26666666666667 1.903125  4.52777777777778 1.28515625  5.05 0.77109375  C 5.57222222222222 0.257031249999997  6.2 0  6.93333333333333 0  L 25.0666666666667 0  C 25.8 0  26.4277777777778 0.257031249999997  26.95 0.77109375  C 27.4722222222222 1.28515625  27.7333333333333 1.903125  27.7333333333333 2.625  L 27.7333333333333 14.175  C 27.7333333333333 14.896875  27.4722222222222 15.51484375  26.95 16.02890625  C 26.4277777777778 16.54296875  25.8 16.8  25.0666666666667 16.8  Z M 6.55833333333333 2.255859375  C 6.45277777777778 2.359765625  6.4 2.4828125  7 2.625  L 7 14.175  C 6.4 14.3171875  6.45277777777778 14.440234375  6.55833333333333 14.544140625  C 6.66388888888889 14.648046875  6.78888888888889 14.7  6.93333333333333 14.7  L 25.0666666666667 14.7  C 25.2111111111111 14.7  25.3361111111111 14.648046875  25.4416666666667 14.544140625  C 25.5472222222222 14.440234375  25.6 14.3171875  25 14.175  L 25 2.625  C 25.6 2.4828125  25.5472222222222 2.359765625  25.4416666666667 2.255859375  C 25.3361111111111 2.151953125  25.2111111111111 2.1  25.0666666666667 2  L 6.93333333333333 2  C 6.78888888888889 2.1  6.66388888888889 2.151953125  6.55833333333333 2.255859375  Z M 2.66666666666667 17.85  L 29.3333333333333 17.85  L 32 17.85  L 32 19.425  C 32 19.8625  31.7388888888889 20.234375  31.2166666666667 20.540625  C 30.6944444444444 20.846875  30.0666666666667 21  29.3333333333333 21  L 2.66666666666667 21  C 1.93333333333333 21  1.30555555555556 20.846875  0.783333333333333 20.540625  C 0.261111111111111 20.234375  0 19.8625  0 19.425  L 0 17.85  L 2.66666666666667 17.85  Z M 14.6666666666667 19.425  L 17.3333333333333 19.425  C 17.5111111111111 19.425  17.6 19.3375  17.6 19.1625  C 17.6 18.9875  17.5111111111111 18.9  17.3333333333333 18.9  L 14.6666666666667 18.9  C 14.4888888888889 18.9  14.4 18.9875  14.4 19.1625  C 14.4 19.3375  14.4888888888889 19.425  14.6666666666667 19.425  Z " fill-rule="nonzero" fill="#000000" stroke="none" transform="matrix(1 0 0 1 1518 591 )" />
  </g>
</svg>