<?xml version="1.0" encoding="utf-8"?>
<svg version="1.1" xmlns:xlink="http://www.w3.org/1999/xlink" width="24px" height="22px" xmlns="http://www.w3.org/2000/svg">
  <g transform="matrix(1 0 0 1 -1395 -695 )">
    <path d="M 22.7755102040816 4.39713541666667  C 23.140456182473 4.54036458333333  23.4237695078031 4.74565972222222  23.625450180072 5.01302083333333  C 24.0096038415366 5.55729166666667  24.0960384153661 6.17317708333333  23.8847539015606 6.86067708333333  L 19.9231692677071 19.8372395833333  C 19.7406962785114 20.4483506944444  19.3733493397359 20.9615885416667  18.8211284513806 21.376953125  C 18.2689075630252 21.7923177083333  17.6806722689076 22  17.0564225690276 22  L 3.75990396158463 22  C 3.02040816326531 22  2.30732292917167 21.7445746527778  1.62064825930372 21.2337239583333  C 0.933973589435774 20.7228732638889  0.456182472989196 20.0950520833333  0.187274909963986 19.3502604166667  C -0.0432172869147659 18.7105034722222  -0.0528211284513806 18.1041666666667  0.158463385354142 17.53125  C 0.158463385354142 17.4930555555556  0.172869147659064 17.3641493055556  0.201680672268908 17.14453125  C 0.230492196878751 16.9249131944444  0.249699879951981 16.7482638888889  0.259303721488595 16.6145833333333  C 0.26890756302521 16.5381944444444  0.254501800720288 16.435546875  0.21608643457383 16.306640625  C 0.177671068427371 16.177734375  0.163265306122449 16.0846354166667  0.172869147659064 16.02734375  C 0.192076830732293 15.9223090277778  0.230492196878751 15.8220486111111  0.288115246098439 15.7265625  C 0.345738295318127 15.6310763888889  0.424969987995198 15.5188802083333  0.525810324129652 15.3899739583333  C 0.626650660264106 15.2610677083333  0.705882352941176 15.1488715277778  0.763505402160864 15.0533854166667  C 0.984393757503001 14.6905381944444  1.20048019207683 14.2536892361111  1.41176470588235 13.7428385416667  C 1.62304921968788 13.2319878472222  1.76710684273709 12.7951388888889  1.84393757503001 12.4322916666667  C 1.87274909963986 12.3368055555556  1.87515006002401 12.1935763888889  1.85114045618247 12.0026041666667  C 1.82713085234094 11.8116319444444  1.82472989195678 11.6779513888889  1.84393757503001 11.6015625  C 1.87274909963986 11.4965277777778  1.95438175270108 11.3628472222222  2.08883553421369 11.2005208333333  C 2.22328931572629 11.0381944444444  2.30492196878752 10.9283854166667  2.33373349339736 10.87109375  C 2.53541416566627 10.52734375  2.73709483793517 10.0881076388889  2.93877551020408 9.55338541666667  C 3.14045618247299 9.01866319444444  3.26050420168067 8.58897569444444  3.29891956782713 8.26432291666667  C 3.30852340936375 8.17838541666667  3.29651860744298 8.02560763888889  3.26290516206483 7.80598958333333  C 3.22929171668667 7.58637152777778  3.23169267707083 7.45269097222222  3.27010804321729 7.40494791666667  C 3.30852340936375 7.28081597222222  3.41416566626651 7.13519965277778  3.58703481392557 6.96809895833333  C 3.75990396158463 6.80099826388889  3.8655462184874 6.69357638888889  3.90396158463385 6.64583333333333  C 4.08643457382953 6.39756944444444  4.29051620648259 5.994140625  4.51620648259304 5.435546875  C 4.74189675870348 4.876953125  4.87394957983193 4.41623263888889  4.91236494597839 4.05338541666667  C 4.92196878751501 3.97699652777778  4.90756302521008 3.85525173611111  4.86914765906363 3.68815104166667  C 4.83073229291717 3.52105034722222  4.82112845138055 3.39453125  4.84033613445378 3.30859375  C 4.85954381752701 3.23220486111111  4.90276110444178 3.14626736111111  4.96998799519808 3.05078125  C 5.03721488595438 2.95529513888889  5.12364945978391 2.84548611111111  5.22929171668667 2.72135416666667  C 5.33493397358944 2.59722222222222  5.41656662665066 2.49696180555555  5.47418967587035 2.42057291666667  C 5.55102040816327 2.30598958333333  5.63025210084034 2.16037326388889  5.71188475390156 1.98372395833333  C 5.79351740696278 1.80707465277777  5.8655462184874 1.63997395833333  5.92797118847539 1.482421875  C 5.99039615846339 1.32486979166667  6.0672268907563 1.15299479166667  6.15846338535414 0.966796875  C 6.24969987995198 0.780598958333334  6.34333733493397 0.627821180555554  6.43937575030012 0.508463541666666  C 6.53541416566627 0.389105902777775  6.66266506602641 0.27690972222222  6.82112845138055 0.171875  C 6.9795918367347 0.0668402777777748  7.15246098439376 0.0119357638888886  7.33973589435774 0.00716145833333415  C 7.52701080432173 0.00238715277777479  7.75510204081633 0.0286458333333341  8.02400960384154 0.0859375  L 8.00960384153661 0.12890625  C 8.37454981992797 0.04296875  8.61944777911165 0  8.74429771908764 0  L 19.7070828331333 0  C 20.4177671068427 0  20.9651860744298 0.267361111111109  21.3493397358944 0.802083333333334  C 21.7334933973589 1.33680555555555  21.8199279711885 1.95746527777777  21.608643457383 2.6640625  L 17.6614645858343 15.640625  C 17.3157262905162 16.7769097222222  16.9723889555822 17.509765625  16.6314525810324 17.8391927083333  C 16.2905162064826 18.1686197916667  15.6734693877551 18.3333333333333  14.7803121248499 18  L 2.26170468187275 18  C 2.00240096038415 18.3333333333333  1.81992797118848 18.4049479166667  1.71428571428571 18.5481770833333  C 1.60864345738295 18.7009548611111  1.60384153661465 18.90625  1.69987995198079 19.1640625  C 1.93037214885954 19.8324652777778  2.6218487394958 20.1666666666667  3.77430972388956 20  L 17.0708283313325 20  C 17.3493397358944 20.1666666666667  17.6182472989196 20.0926649305556  17.8775510204082 19.9446614583333  C 18.1368547418968 19.7966579861111  18.3049219687875 19.5985243055556  18.3817527010804 19.3502604166667  L 22.703481392557 5.21354166666667  C 22.7707082833133 5.00347222222222  22.7947178871549 4.73133680555555  22.7755102040816 4.39713541666667  Z M 8.60024009603842 4.125  L 8.29771908763506 5.04166666666667  C 8.2593037214886 5.16579861111111  8.26890756302521 5.27322048611111  8.3265306122449 5.36393229166667  C 8.38415366146459 5.45464409722222  8.48019207683073 5.5  8.61464585834334 5.5  L 17.3733493397359 5.5  C 17.4981992797119 5.5  17.6206482593037 5.45464409722222  17.7406962785114 5.36393229166667  C 17.8607442977191 5.27322048611111  17.9399759903962 5.16579861111111  17.9783913565426 5.04166666666667  L 18.280912364946 4.125  C 18.3193277310924 4.00086805555555  18.3097238895558 3.89344618055555  18.2521008403361 3.802734375  C 18.1944777911164 3.71202256944444  18.0984393757503 3.66666666666667  17.9639855942377 3.66666666666667  L 9.20528211284514 3.66666666666667  C 9.08043217286915 3.66666666666667  8.95798319327731 3.71202256944444  8.83793517406963 3.802734375  C 8.71788715486194 3.89344618055555  8.63865546218488 4.00086805555555  8.60024009603842 4.125  Z M 7.40456182472989 7.79166666666667  L 7.10204081632653 8.70833333333333  C 7.06362545018007 8.83246527777778  7.07322929171669 8.93988715277778  7.13085234093638 9.03059895833333  C 7.18847539015606 9.12131076388889  7.28451380552221 9.16666666666667  7.41896758703481 9.16666666666667  L 16.1776710684274 9.16666666666667  C 16.3025210084034 9.16666666666667  16.4249699879952 9.12131076388889  16.5450180072029 9.03059895833333  C 16.6650660264106 8.93988715277778  16.7442977190876 8.83246527777778  16.7827130852341 8.70833333333333  L 17.0852340936375 7.79166666666667  C 17.1236494597839 7.66753472222222  17.1140456182473 7.56011284722222  17.0564225690276 7.46940104166667  C 16.9987995198079 7.37868923611111  16.9027611044418 7.33333333333333  16.7683073229292 7.33333333333333  L 8.00960384153661 7.33333333333333  C 7.88475390156063 7.33333333333333  7.76230492196879 7.37868923611111  7.6422569027611 7.46940104166667  C 7.52220888355342 7.56011284722222  7.44297719087635 7.66753472222222  7.40456182472989 7.79166666666667  Z " fill-rule="nonzero" fill="#000000" stroke="none" transform="matrix(1 0 0 1 1395 695 )" />
  </g>
</svg>