<?xml version="1.0" encoding="utf-8"?>
<svg version="1.1" xmlns:xlink="http://www.w3.org/1999/xlink" width="31px" height="20px" xmlns="http://www.w3.org/2000/svg">
  <g transform="matrix(1 0 0 1 -1640 -697 )">
    <path d="M 8.75911458333333 16.8671875  C 9.54846643518519 16.1119791666667  10.0462962962963 15.15625  10.2526041666667 14  L 6.02777777777778 14  C 5.66898148148148 14  5.41109664351852 13.8177083333333  5.25412326388889 13.453125  C 5.09714988425926 13.0885416666667  5.12630208333333 12.7395833333333  5.34157986111111 12.40625  L 7.87109375 8.484375  C 7.28804976851852 8.16145833333333  6.67361111111111 8  6.02777777777778 8  C 4.84375 8  3.83015046296296 8.48958333333334  2.98697916666667 9.46875  C 2.14380787037037 10.4479166666667  1.72222222222222 11.625  1.72222222222222 13  C 1.72222222222222 14.375  2.14380787037037 15.5520833333333  2.98697916666667 16.53125  C 3.83015046296296 17.5104166666667  4.84375 18  6.02777777777778 18  C 7.05931712962963 18  7.96976273148148 17.6223958333333  8.75911458333333 16.8671875  Z M 9.24348958333333 9.6875  L 7.75 12  L 10.2526041666667 12  C 10.0911458333333 11.1145833333333  9.75477430555556 10.34375  9.24348958333333 9.6875  Z M 11.98828125 12  L 14.2083333333333 12  L 18.0833333333333 6  L 11.625 6  L 10.29296875 8.0625  C 11.2348090277778 9.13541666666667  11.7999131944444 10.4479166666667  11.98828125 12  Z M 28.0130208333333 16.53125  C 28.8561921296296 15.5520833333333  29.2777777777778 14.375  29.2777777777778 13  C 29.2777777777778 11.625  28.8561921296296 10.4479166666667  28.0130208333333 9.46875  C 27.169849537037 8.48958333333334  26.15625 8  24.9722222222222 8  C 24.4340277777778 8  23.8913483796296 8.125  23.3441840277778 8.375  L 25.6853298611111 12.4375  C 25.8198784722222 12.6770833333333  25.8647280092593 12.9322916666667  25.8198784722222 13.203125  C 25.7750289351852 13.4739583333333  25.6539351851852 13.6822916666667  25.4565972222222 13.828125  C 25.3220486111111 13.9427083333333  25.1605902777778 14  24.9722222222222 14  C 24.658275462963 14  24.4205729166667 13.8489583333333  24.2591145833333 13.546875  L 21.91796875 9.484375  C 21.0837673611111 10.4739583333333  20.6666666666667 11.6458333333333  20.6666666666667 13  C 20.6666666666667 14.375  21.0882523148148 15.5520833333333  21.9314236111111 16.53125  C 22.7745949074074 17.5104166666667  23.7881944444444 18  24.9722222222222 18  C 26.15625 18  27.169849537037 17.5104166666667  28.0130208333333 16.53125  Z M 29.2306857638889 8.0546875  C 30.410228587963 9.42447916666667  31 11.0729166666667  31 13  C 31 14.9270833333333  30.410228587963 16.5755208333333  29.2306857638889 17.9453125  C 28.0511429398148 19.3151041666667  26.6316550925926 20  24.9722222222222 20  C 23.3127893518519 20  21.8933015046296 19.3151041666667  20.7137586805556 17.9453125  C 19.5342158564815 16.5755208333333  18.9444444444444 14.9270833333333  18.9444444444444 13  C 18.9444444444444 11.9895833333333  19.1216001157407 11.0338541666667  19.4759114583333 10.1328125  C 19.8302228009259 9.23177083333333  20.3213252314815 8.453125  20.94921875 7.796875  L 20.0746527777778 6.265625  L 15.3250868055556 13.59375  C 15.1636284722222 13.8645833333333  14.9348958333333 14  14.6388888888889 14  L 11.98828125 14  C 11.7819733796296 15.7083333333333  11.1137152777778 17.1354166666667  9.98350694444444 18.28125  C 8.85329861111111 19.4270833333333  7.53472222222222 20  6.02777777777778 20  C 4.36834490740741 20  2.94885706018519 19.3151041666667  1.76931423611111 17.9453125  C 0.589771412037037 16.5755208333333  0 14.9270833333333  0 13  C 0 11.0729166666667  0.589771412037037 9.42447916666667  1.76931423611111 8.0546875  C 2.94885706018519 6.68489583333333  4.36834490740741 6  6.02777777777778 6  C 7.05034722222222 6  8.01461226851852 6.28645833333333  8.92057291666667 6.859375  L 10.7638888888889 4  L 7.75 4  C 7.51678240740741 4  7.31495949074074 3.90104166666666  7.14453125 3.703125  C 6.97410300925926 3.50520833333333  6.88888888888889 3.27083333333333  6.88888888888889 3  C 6.88888888888889 2.72916666666666  6.97410300925926 2.49479166666666  7.14453125 2.296875  C 7.31495949074074 2.09895833333333  7.51678240740741 2  7.75 2  L 12.9166666666667 2  L 12.9166666666667 4  L 18.76953125 4  L 17.6258680555556 2  L 14.6388888888889 2  C 14.4056712962963 2  14.2038483796296 1.90104166666667  14.0334201388889 1.703125  C 13.8629918981482 1.50520833333333  13.7777777777778 1.27083333333333  13.7777777777778 1  C 13.7777777777778 0.729166666666665  13.8629918981482 0.494791666666665  14.0334201388889 0.296875000000001  C 14.2038483796296 0.0989583333333321  14.4056712962963 0  14.6388888888889 0  L 18.0833333333333 0  C 18.3793402777778 0  18.6170428240741 0.145833333333332  18.7964409722222 0.4375  L 22.3888888888889 6.6875  C 23.205150462963 6.22916666666667  24.0662615740741 6  24.9722222222222 6  C 26.6316550925926 6  28.0511429398148 6.68489583333333  29.2306857638889 8.0546875  Z " fill-rule="nonzero" fill="#000000" stroke="none" transform="matrix(1 0 0 1 1640 697 )" />
  </g>
</svg>