<?xml version="1.0" encoding="utf-8"?>
<svg version="1.1" xmlns:xlink="http://www.w3.org/1999/xlink" width="20px" height="26px" xmlns="http://www.w3.org/2000/svg">
  <g transform="matrix(1 0 0 1 -1524 -693 )">
    <path d="M 19.8650568181818 24.2806919642857  C 19.9550189393939 24.3725818452381  20 24.4813988095238  20 24.6071428571429  L 20 25.5357142857143  C 20 25.6614583333333  19.9550189393939 25.770275297619  19.8650568181818 25.8621651785714  C 19.7750946969697 25.9540550595238  19.6685606060606 26  19.5454545454545 26  L 0.454545454545455 26  C 0.331439393939394 26  0.224905303030303 25.9540550595238  0.134943181818182 25.8621651785714  C 0.0449810606060606 25.770275297619  0 25.6614583333333  0 25.5357142857143  L 0 24.6071428571429  C 0 24.4813988095238  0.0449810606060606 24.3725818452381  0.134943181818182 24.2806919642857  C 0.224905303030303 24.1888020833333  0.331439393939394 24.1428571428571  0.454545454545455 24  L 19.5454545454545 24  C 19.6685606060606 24.1428571428571  19.7750946969697 24.1888020833333  19.8650568181818 24.2806919642857  Z M 15.9730113636364 6.61607142857143  C 16.233428030303 7.44791666666666  16.3636363636364 8.33779761904762  16.3636363636364 9.28571428571428  C 16.3636363636364 10.0401785714286  16.2476325757576 10.7366071428571  16.015625 11.375  C 15.7836174242424 12.0133928571429  15.4805871212121 12.5574776785714  15.1065340909091 13.0072544642857  C 14.7324810606061 13.45703125  14.3181818181818 13.8826264880952  13.8636363636364 14.2840401785714  C 13.4090909090909 14.6854538690476  12.9545454545455 15.0602678571429  12.5 15.4084821428571  C 12.0454545454545 15.7566964285714  11.6311553030303 16.1049107142857  11.2571022727273 16.453125  C 10.8830492424242 16.8013392857143  10.5800189393939 17.1954985119048  10.3480113636364 17.6356026785714  C 10.1160037878788 18.0757068452381  10 18.5424107142857  10 19.0357142857143  C 10 19.9642857142857  10.3172348484848 21.047619047619  10.9517045454545 22.2857142857143  L 10.8948863636364 22.2712053571429  L 10.9090909090909 22.2857142857143  C 10.0568181818182 21.8891369047619  9.29924242424243 21.4877232142857  8.63636363636364 21.0814732142857  C 7.97348484848485 20.6752232142857  7.31770833333333 20.1915922619048  6.66903409090909 19.6305803571429  C 6.02035984848485 19.069568452381  5.48295454545455 18.4771205357143  5.05681818181818 17.8532366071429  C 4.63068181818182 17.2293526785714  4.2874053030303 16.5014880952381  4.02698863636364 15.6696428571429  C 3.76657196969697 14.8377976190476  3.63636363636364 13.9479166666667  3.63636363636364 13  C 3.63636363636364 12.2455357142857  3.75236742424242 11.5491071428571  3.984375 10.9107142857143  C 4.21638257575758 10.2723214285714  4.51941287878788 9.72823660714286  4.89346590909091 9.27845982142857  C 5.26751893939394 8.82868303571428  5.68181818181818 8.40308779761905  6.13636363636364 8.00167410714286  C 6.59090909090909 7.60026041666666  7.04545454545455 7.22544642857143  7.5 6.87723214285714  C 7.95454545454545 6.52901785714286  8.3688446969697 6.18080357142857  8.74289772727273 5.83258928571428  C 9.11695075757576 5.484375  9.41998106060606 5.09021577380952  9.65198863636364 4.65011160714286  C 9.88399621212121 4.21000744047619  10 3.74330357142857  10 3.25  C 10 2.34077380952381  9.6875 1.25744047619047  9.0625 0  L 9.10511363636364 0.0145089285714282  L 9.09090909090909 0  C 9.94318181818182 0.39657738095238  10.7007575757576 0.797991071428572  11.3636363636364 1.20424107142857  C 12.0265151515152 1.61049107142857  12.6822916666667 2.09412202380952  13.3309659090909 2.65513392857143  C 13.9796401515152 3.21614583333333  14.5170454545455 3.80859375  14.9431818181818 4.43247767857143  C 15.3693181818182 5.05636160714286  15.7125946969697 5.78422619047619  15.9730113636364 6.61607142857143  Z " fill-rule="nonzero" fill="#000000" stroke="none" transform="matrix(1 0 0 1 1524 693 )" />
  </g>
</svg>