<?xml version="1.0" encoding="utf-8"?>
<svg version="1.1" xmlns:xlink="http://www.w3.org/1999/xlink" width="13px" height="20px" xmlns="http://www.w3.org/2000/svg">
  <g transform="matrix(1 0 0 1 -750 -458 )">
    <path d="M 8.86767578125 4.66145833333333  C 9.18505859375 4.99131944444444  9.34375 5.38194444444444  9.34375 5.83333333333333  C 9.34375 5.94618055555555  9.30354817708333 6.04383680555555  9.22314453125 6.12630208333333  C 9.14274088541667 6.20876736111111  9.04752604166667 6.25  8.9375 6.25  C 8.82747395833333 6.25  8.73225911458333 6.20876736111111  8.65185546875 6.12630208333333  C 8.57145182291667 6.04383680555555  8.53125 5.94618055555555  8.53125 5.83333333333333  C 8.53125 5.43402777777778  8.302734375 5.12586805555555  7.845703125 4.90885416666667  C 7.388671875 4.69184027777778  6.94010416666667 4.58333333333333  6.5 4.58333333333333  C 6.38997395833333 4.58333333333333  6.29475911458333 4.54210069444444  6.21435546875 4.45963541666667  C 6.13395182291667 4.37717013888889  6.09375 4.27951388888889  6.09375 4.16666666666667  C 6.09375 4.05381944444444  6.13395182291667 3.95616319444444  6.21435546875 3.87369791666667  C 6.29475911458333 3.79123263888889  6.38997395833333 3.75  6.5 3.75  C 6.92317708333333 3.75  7.34423828125 3.81944444444444  7.76318359375 3.95833333333333  C 8.18212890625 4.09722222222222  8.55029296875 4.33159722222222  8.86767578125 4.66145833333333  Z M 10.51171875 8.17708333333333  C 11.0872395833333 7.49131944444444  11.375 6.71006944444444  11.375 5.83333333333333  C 11.375 5.20833333333333  11.22900390625 4.62673611111111  10.93701171875 4.08854166666667  C 10.64501953125 3.55034722222222  10.26416015625 3.10980902777778  9.79443359375 2.76692708333333  C 9.32470703125 2.42404513888889  8.80419921875 2.15494791666667  8.23291015625 1.95963541666667  C 7.66162109375 1.76432291666667  7.083984375 1.66666666666667  6.5 1.66666666666667  C 5.916015625 1.66666666666667  5.33837890625 1.76432291666667  4.76708984375 1.95963541666667  C 4.19580078125 2.15494791666667  3.67529296875 2.42404513888889  3.20556640625 2.76692708333333  C 2.73583984375 3.10980902777778  2.35498046875 3.55034722222222  2.06298828125 4.08854166666667  C 1.77099609375 4.62673611111111  1.625 5.20833333333333  1.625 5.83333333333333  C 1.625 6.71006944444444  1.91276041666667 7.49131944444444  2.48828125 8.17708333333333  C 2.57291666666667 8.27256944444444  2.70198567708333 8.41579861111111  2.87548828125 8.60677083333333  C 3.04899088541667 8.79774305555556  3.17805989583333 8.94097222222222  3.2626953125 9.03645833333333  C 4.34602864583333 10.3645833333333  4.94270833333333 11.6579861111111  5.052734375 12.9166666666667  L 7.947265625 12.9166666666667  C 8.05729166666667 11.6579861111111  8.65397135416667 10.3645833333333  9.7373046875 9.03645833333333  C 9.82194010416667 8.94097222222222  9.95100911458334 8.79774305555556  10.12451171875 8.60677083333333  C 10.2980143229167 8.41579861111111  10.4270833333333 8.27256944444444  10.51171875 8.17708333333333  Z M 12.43505859375 3.43098958333333  C 12.8116861979167 4.17317708333333  13 4.97395833333333  13 5.83333333333333  C 13 7.17881944444444  12.5641276041667 8.34201388888889  11.6923828125 9.32291666666667  C 11.3115234375 9.74826388888889  10.9962565104167 10.1258680555556  10.74658203125 10.4557291666667  C 10.4969075520833 10.7855902777778  10.2451171875 11.2000868055556  9.9912109375 11.69921875  C 9.7373046875 12.1983506944444  9.59342447916667 12.6649305555556  9.5595703125 13.0989583333333  C 9.95735677083333 13.3420138888889  10.15625 13.6979166666667  10.15625 14.1666666666667  C 10.15625 14.4878472222222  10.0504557291667 14.765625  9.8388671875 15  C 10.0504557291667 15.234375  10.15625 15.5121527777778  10.15625 15.8333333333333  C 10.15625 16.2847222222222  9.9658203125 16.6362847222222  9.5849609375 16.8880208333333  C 9.69498697916667 17.0876736111111  9.75 17.2916666666667  9.75 17.5  C 9.75 17.8993055555556  9.61669921875 18.2074652777778  9.35009765625 18.4244791666667  C 9.08349609375 18.6414930555556  8.75553385416667 18.75  8.3662109375 18.75  C 8.19694010416667 19.1319444444444  7.94303385416667 19.4357638888889  7.6044921875 19.6614583333333  C 7.26595052083333 19.8871527777778  6.89778645833333 20  6.5 20  C 6.10221354166667 20  5.73404947916667 19.8871527777778  5.3955078125 19.6614583333333  C 5.05696614583333 19.4357638888889  4.80305989583333 19.1319444444444  4.6337890625 18.75  C 4.24446614583333 18.75  3.91650390625 18.6414930555556  3.64990234375 18.4244791666667  C 3.38330078125 18.2074652777778  3.25 17.8993055555556  3.25 17.5  C 3.25 17.2916666666667  3.30501302083333 17.0876736111111  3.4150390625 16.8880208333333  C 3.0341796875 16.6362847222222  2.84375 16.2847222222222  2.84375 15.8333333333333  C 2.84375 15.5121527777778  2.94954427083333 15.234375  3.1611328125 15  C 2.94954427083333 14.765625  2.84375 14.4878472222222  2.84375 14.1666666666667  C 2.84375 13.6979166666667  3.04264322916667 13.3420138888889  3.4404296875 13.0989583333333  C 3.40657552083333 12.6649305555556  3.2626953125 12.1983506944444  3.0087890625 11.69921875  C 2.7548828125 11.2000868055556  2.50309244791667 10.7855902777778  2.25341796875 10.4557291666667  C 2.00374348958333 10.1258680555556  1.6884765625 9.74826388888889  1.3076171875 9.32291666666667  C 0.435872395833333 8.34201388888889  0 7.17881944444444  0 5.83333333333333  C 0 4.97395833333333  0.188313802083333 4.17317708333333  0.56494140625 3.43098958333333  C 0.941569010416667 2.68880208333333  1.43668619791667 2.07248263888889  2.05029296875 1.58203125  C 2.66389973958333 1.09157986111111  3.35791015625 0.705295138888886  4.13232421875 0.423177083333333  C 4.90673828125 0.141059027777777  5.69596354166667 0  6.5 0  C 7.30403645833333 0  8.09326171875 0.141059027777777  8.86767578125 0.423177083333333  C 9.64208984375 0.705295138888886  10.3361002604167 1.09157986111111  10.94970703125 1.58203125  C 11.5633138020833 2.07248263888889  12.0584309895833 2.68880208333333  12.43505859375 3.43098958333333  Z " fill-rule="nonzero" fill="#000000" stroke="none" transform="matrix(1 0 0 1 750 458 )" />
  </g>
</svg>