<?xml version="1.0" encoding="utf-8"?>
<svg version="1.1" xmlns:xlink="http://www.w3.org/1999/xlink" width="15px" height="21px" xmlns="http://www.w3.org/2000/svg">
  <g transform="matrix(1 0 0 1 -2577 -156 )">
    <path d="M 14.7526041666667 8.31670673076923  C 14.9175347222222 8.4765625  15 8.66586538461538  15 8.88461538461539  L 15 10.5  C 15 12.359375  14.3598090277778 13.9768629807692  13.0794270833333 15.3524639423077  C 11.7990451388889 16.7280649038462  10.2170138888889 17.5168269230769  8.33333333333333 17.71875  L 8.33333333333333 19.3846153846154  L 11.6666666666667 19.3846153846154  C 11.8923611111111 19.3846153846154  12.0876736111111 19.4645432692308  12.2526041666667 19.6243990384615  C 12.4175347222222 19.7842548076923  12.5 19.9735576923077  12.5 20.1923076923077  C 12.5 20.4110576923077  12.4175347222222 20.6003605769231  12.2526041666667 20.7602163461538  C 12.0876736111111 20.9200721153846  11.8923611111111 21  11.6666666666667 21  L 3.33333333333333 21  C 3.10763888888889 21  2.91232638888889 20.9200721153846  2.74739583333333 20.7602163461538  C 2.58246527777778 20.6003605769231  2.5 20.4110576923077  2.5 20.1923076923077  C 2.5 19.9735576923077  2.58246527777778 19.7842548076923  2.74739583333333 19.6243990384615  C 2.91232638888889 19.4645432692308  3.10763888888889 19.3846153846154  3.33333333333333 19.3846153846154  L 6.66666666666667 19.3846153846154  L 6.66666666666667 17.71875  C 4.78298611111111 17.5168269230769  3.20095486111111 16.7280649038462  1.92057291666667 15.3524639423077  C 0.640190972222222 13.9768629807692  0 12.359375  0 10.5  L 0 8.88461538461539  C 0 8.66586538461538  0.0824652777777778 8.4765625  0.247395833333333 8.31670673076923  C 0.412326388888889 8.15685096153846  0.607638888888889 8.07692307692308  0.833333333333333 8.07692307692308  C 1.05902777777778 8.07692307692308  1.25434027777778 8.15685096153846  1.41927083333333 8.31670673076923  C 1.58420138888889 8.4765625  1.66666666666667 8.66586538461538  1.66666666666667 8.88461538461539  L 1.66666666666667 10.5  C 1.66666666666667 12.0564903846154  2.23741319444444 13.3879206730769  3.37890625 14.4942908653846  C 4.52039930555556 15.6006610576923  5.89409722222222 16.1538461538462  7.5 16.1538461538462  C 9.10590277777778 16.1538461538462  10.4796006944444 15.6006610576923  11.62109375 14.4942908653846  C 12.7625868055556 13.3879206730769  13.3333333333333 12.0564903846154  13.3333333333333 10.5  L 13.3333333333333 8.88461538461539  C 13.3333333333333 8.66586538461538  13.4157986111111 8.4765625  13.5807291666667 8.31670673076923  C 13.7456597222222 8.15685096153846  13.9409722222222 8.07692307692308  14.1666666666667 8.07692307692308  C 14.3923611111111 8.07692307692308  14.5876736111111 8.15685096153846  14.7526041666667 8.31670673076923  Z M 10.4427083333333 1.18629807692308  C 11.2586805555556 1.97716346153846  11.6666666666667 2.92788461538461  11.6666666666667 4.03846153846154  L 11.6666666666667 10.5  C 11.6666666666667 11.6105769230769  11.2586805555556 12.5612980769231  10.4427083333333 13.3521634615385  C 9.62673611111111 14.1430288461538  8.64583333333333 14.5384615384615  7.5 14.5384615384615  C 6.35416666666667 14.5384615384615  5.37326388888889 14.1430288461538  4.55729166666667 13.3521634615385  C 3.74131944444445 12.5612980769231  3.33333333333333 11.6105769230769  3.33333333333333 10.5  L 3.33333333333333 4.03846153846154  C 3.33333333333333 2.92788461538461  3.74131944444445 1.97716346153846  4.55729166666667 1.18629807692308  C 5.37326388888889 0.395432692307694  6.35416666666667 0  7.5 0  C 8.64583333333333 0  9.62673611111111 0.395432692307694  10.4427083333333 1.18629807692308  Z " fill-rule="nonzero" fill="#000000" stroke="none" transform="matrix(1 0 0 1 2577 156 )" />
  </g>
</svg>