<?xml version="1.0" encoding="utf-8"?>
<svg version="1.1" xmlns:xlink="http://www.w3.org/1999/xlink" width="115px" height="115px" xmlns="http://www.w3.org/2000/svg">
  <g transform="matrix(1 0 0 1 -2869 -236 )">
    <path d="M 2926.5 236  C 2958.7 236  2984 261.3  2984 293.5  C 2984 325.7  2958.7 351  2926.5 351  C 2894.3 351  2869 325.7  2869 293.5  C 2869 261.3  2894.3 236  2926.5 236  Z " fill-rule="nonzero" fill="#ffffff" stroke="none" />
    <path d="M 2926.5 236.5  C 2958.42 236.5  2983.5 261.58  2983.5 293.5  C 2983.5 325.42  2958.42 350.5  2926.5 350.5  C 2894.58 350.5  2869.5 325.42  2869.5 293.5  C 2869.5 261.58  2894.58 236.5  2926.5 236.5  Z " stroke-width="1" stroke="#797979" fill="none" />
  </g>
</svg>