<?xml version="1.0" encoding="utf-8"?>
<svg version="1.1" xmlns:xlink="http://www.w3.org/1999/xlink" width="12px" height="12px" xmlns="http://www.w3.org/2000/svg">
  <g transform="matrix(1 0 0 1 -2945 -764 )">
    <path d="M 4.76254180602007 3.41904761904762  L 4.76254180602007 8.20952380952381  L 8 5.82857142857143  L 4.76254180602007 3.41904761904762  Z M 1.80602006688963 0.171428571428571  C 2.92530657748049 0.0571428571428569  4.32329988851728 0  6 0  C 6.74916387959866 0  7.4726867335563 0.0142857142857142  8.17056856187291 0.0428571428571427  C 8.86845039018952 0.0714285714285712  9.38015607580825 0.101587301587301  9.7056856187291 0.133333333333333  L 10.1939799331104 0.171428571428571  C 10.1984392419175 0.171428571428571  10.2363433667782 0.176190476190476  10.3076923076923 0.185714285714285  C 10.3790412486065 0.195238095238096  10.4303232998885 0.204761904761905  10.4615384615385 0.214285714285715  C 10.4927536231884 0.223809523809524  10.5451505016722 0.238095238095239  10.61872909699 0.257142857142858  C 10.6923076923077 0.276190476190477  10.7558528428094 0.3015873015873  10.809364548495 0.333333333333333  C 10.8628762541806 0.365079365079364  10.9253065774805 0.406349206349204  10.9966555183946 0.457142857142857  C 11.0680044593088 0.507936507936507  11.1371237458194 0.56984126984127  11.2040133779264 0.642857142857143  C 11.2709030100334 0.715873015873014  11.3355629877369 0.8  11.3979933110368 0.895238095238095  C 11.4247491638796 0.933333333333333  11.4593088071349 0.992063492063491  11.5016722408027 1.07142857142857  C 11.5440356744705 1.15079365079365  11.6086956521739 1.33650793650794  11.695652173913 1.62857142857143  C 11.7826086956522 1.92063492063492  11.8416945373467 2.24126984126984  11.8729096989967 2.59047619047619  C 11.9085841694537 2.9968253968254  11.9364548494983 3.43015873015873  11.9565217391304 3.89047619047619  C 11.9765886287625 4.35079365079365  11.9888517279822 4.71111111111111  11.9933110367893 4.97142857142857  L 11.9933110367893 5.35238095238095  L 11.9933110367893 6.64761904761905  C 11.9977703455964 7.56825396825397  11.9576365663322 8.48888888888889  11.8729096989967 9.40952380952381  C 11.8416945373467 9.75873015873016  11.7859531772575 10.0746031746032  11.7056856187291 10.3571428571429  C 11.6254180602007 10.6396825396825  11.5540691192865 10.8349206349206  11.4916387959866 10.9428571428571  L 11.3979933110368 11.1047619047619  C 11.3355629877369 11.2  11.2709030100334 11.284126984127  11.2040133779264 11.3571428571429  C 11.1371237458194 11.4301587301587  11.0680044593088 11.4904761904762  10.9966555183946 11.5380952380952  C 10.9253065774805 11.5857142857143  10.8628762541806 11.6253968253968  10.809364548495 11.6571428571429  C 10.7558528428094 11.6888888888889  10.6923076923077 11.7142857142857  10.61872909699 11.7333333333333  C 10.5451505016722 11.752380952381  10.4916387959866 11.7666666666667  10.4581939799331 11.7761904761905  C 10.4247491638796 11.7857142857143  10.3734671125975 11.7952380952381  10.304347826087 11.8047619047619  C 10.2352285395764 11.8142857142857  10.1984392419175 11.8190476190476  10.1939799331104 11.8190476190476  C 9.07469342251951 11.9396825396825  7.67670011148272 12  6 12  C 5.07692307692308 11.9873015873016  4.27536231884058 11.9666666666667  3.59531772575251 11.9380952380952  C 2.91527313266444 11.9095238095238  2.46822742474916 11.8857142857143  2.25418060200669 11.8666666666667  L 1.92642140468227 11.8285714285714  L 1.68561872909699 11.7904761904762  C 1.52508361204013 11.7587301587302  1.40356744704571 11.7269841269841  1.32107023411371 11.6952380952381  C 1.23857302118172 11.6634920634921  1.12486064659978 11.5968253968254  0.979933110367893 11.4952380952381  C 0.835005574136009 11.3936507936508  0.709030100334448 11.2634920634921  0.602006688963211 11.1047619047619  C 0.575250836120401 11.0666666666667  0.540691192865106 11.0079365079365  0.498327759197324 10.9285714285714  C 0.455964325529543 10.8492063492063  0.391304347826087 10.6634920634921  0.304347826086957 10.3714285714286  C 0.217391304347826 10.0793650793651  0.158305462653289 9.75873015873016  0.127090301003344 9.40952380952381  C 0.0914158305462653 9.0031746031746  0.0635451505016723 8.56984126984127  0.0434782608695652 8.10952380952381  C 0.0234113712374582 7.64920634920635  0.0111482720178372 7.28888888888889  0.00668896321070234 7.02857142857143  L 0.00668896321070234 6.64761904761905  L 0.00668896321070234 5.35238095238095  C 0.00222965440356745 4.43174603174603  0.0423634336677815 3.51111111111111  0.127090301003344 2.59047619047619  C 0.158305462653289 2.24126984126984  0.214046822742475 1.92539682539682  0.294314381270903 1.64285714285714  C 0.374581939799331 1.36031746031746  0.445930880713489 1.16507936507936  0.508361204013378 1.05714285714286  L 0.602006688963211 0.895238095238095  C 0.664437012263099 0.8  0.729096989966555 0.715873015873014  0.795986622073579 0.642857142857143  C 0.862876254180602 0.56984126984127  0.931995540691193 0.507936507936507  1.00334448160535 0.457142857142857  C 1.07469342251951 0.406349206349204  1.1371237458194 0.365079365079364  1.19063545150502 0.333333333333333  C 1.24414715719064 0.3015873015873  1.30769230769231 0.276190476190477  1.38127090301003 0.257142857142858  C 1.45484949832776 0.238095238095239  1.50724637681159 0.223809523809524  1.53846153846154 0.214285714285715  C 1.56967670011148 0.204761904761905  1.62095875139353 0.195238095238096  1.69230769230769 0.185714285714285  C 1.76365663322185 0.176190476190476  1.8015607580825 0.171428571428571  1.80602006688963 0.171428571428571  Z " fill-rule="nonzero" fill="#666666" stroke="none" transform="matrix(1 0 0 1 2945 764 )" />
  </g>
</svg>