<?xml version="1.0" encoding="utf-8"?>
<svg version="1.1" xmlns:xlink="http://www.w3.org/1999/xlink" width="238px" height="238px" xmlns="http://www.w3.org/2000/svg">
  <g transform="matrix(1 0 0 1 -902 -281 )">
    <path d="M 1021 281.5  C 1087.36 281.5  1139.5 333.64  1139.5 400  C 1139.5 466.36  1087.36 518.5  1021 518.5  C 954.64 518.5  902.5 466.36  902.5 400  C 902.5 333.64  954.64 281.5  1021 281.5  Z " fill-rule="nonzero" fill="#ffffff" stroke="none" />
    <path d="M 1021 281.5  C 1087.36 281.5  1139.5 333.64  1139.5 400  C 1139.5 466.36  1087.36 518.5  1021 518.5  C 954.64 518.5  902.5 466.36  902.5 400  C 902.5 333.64  954.64 281.5  1021 281.5  Z " stroke-width="1" stroke-dasharray="9,4,2,4" stroke="#797979" fill="none" stroke-dashoffset="0.5" />
  </g>
</svg>