<?xml version="1.0" encoding="utf-8"?>
<svg version="1.1" xmlns:xlink="http://www.w3.org/1999/xlink" width="11px" height="10px" xmlns="http://www.w3.org/2000/svg">
  <g transform="matrix(1 0 0 1 -953 -350 )">
    <path d="M 10.6298076923077 3.58538122243226  C 10.8766025641026 3.6231884057971  11 3.71980676328502  11 3.87523629489603  C 11 3.9676538542323  10.9427083333333 4.06847300987187  10.828125 4.17769376181474  L 8.42848557692308 6.40831758034027  L 8.99699519230769 9.55891619407687  C 9.00140224358974 9.58832178113842  9.00360576923077 9.6303297626549  9.00360576923077 9.68494013862634  C 9.00360576923077 9.77315689981096  8.98046875 9.84772106700273  8.93419471153846 9.90863264020164  C 8.88792067307692 9.96954421340055  8.82071314102564 10  8.73257211538462 10  C 8.64883814102564 10  8.56069711538462 9.97479521109011  8.46814903846154 9.92438563327032  L 5.5 8.43730308758664  L 2.53185096153846 9.92438563327032  C 2.43489583333333 9.97479521109011  2.34675480769231 10  2.26742788461538 10  C 2.17487980769231 10  2.10546875 9.96954421340055  2.05919471153846 9.90863264020164  C 2.01292067307692 9.84772106700273  1.98978365384615 9.77315689981096  1.98978365384615 9.68494013862634  C 1.98978365384615 9.65973534971645  1.99419070512821 9.61772736819996  2.00300480769231 9.55891619407687  L 2.57151442307692 6.40831758034027  L 0.165264423076923 4.17769376181474  C 0.055088141025641 4.06427221172023  0 3.96345305608066  0 3.87523629489603  C 0 3.71980676328502  0.123397435897436 3.6231884057971  0.370192307692308 3.58538122243226  L 3.68870192307692 3.12539382482672  L 5.17608173076923 0.258349086326402  C 5.25981570512821 0.0861163621088001  5.36778846153846 0  5.5 0  C 5.63221153846154 0  5.74018429487179 0.0861163621088001  5.82391826923077 0.258349086326402  L 7.31129807692308 3.12539382482672  L 10.6298076923077 3.58538122243226  Z " fill-rule="nonzero" fill="#f59a23" stroke="none" fill-opacity="0.992156862745098" transform="matrix(1 0 0 1 953 350 )" />
  </g>
</svg>