<?xml version="1.0" encoding="utf-8"?>
<svg version="1.1" xmlns:xlink="http://www.w3.org/1999/xlink" width="14px" height="15px" xmlns="http://www.w3.org/2000/svg">
  <g transform="matrix(1 0 0 1 -994 -308 )">
    <path d="M 5.00142045454545 12.412109375  C 5.06107954545455 12.353515625  5.09090909090909 12.2786458333333  5.09090909090909 12.1875  L 5.09090909090909 5.3125  C 5.09090909090909 5.22135416666667  5.06107954545455 5.146484375  5.00142045454545 5.087890625  C 4.94176136363636 5.029296875  4.8655303030303 5  4.77272727272727 5  L 4.13636363636364 5  C 4.04356060606061 5  3.96732954545455 5.029296875  3.90767045454545 5.087890625  C 3.84801136363636 5.146484375  3.81818181818182 5.22135416666667  3.81818181818182 5.3125  L 3.81818181818182 12.1875  C 3.81818181818182 12.2786458333333  3.84801136363636 12.353515625  3.90767045454545 12.412109375  C 3.96732954545455 12.470703125  4.04356060606061 12.5  4.13636363636364 12.5  L 4.77272727272727 12.5  C 4.8655303030303 12.5  4.94176136363636 12.470703125  5.00142045454545 12.412109375  Z M 7.546875 12.412109375  C 7.60653409090909 12.353515625  7.63636363636364 12.2786458333333  7.63636363636364 12.1875  L 7.63636363636364 5.3125  C 7.63636363636364 5.22135416666667  7.60653409090909 5.146484375  7.546875 5.087890625  C 7.48721590909091 5.029296875  7.41098484848485 5  7.31818181818182 5  L 6.68181818181818 5  C 6.58901515151515 5  6.51278409090909 5.029296875  6.453125 5.087890625  C 6.39346590909091 5.146484375  6.36363636363636 5.22135416666667  6.36363636363636 5.3125  L 6.36363636363636 12.1875  C 6.36363636363636 12.2786458333333  6.39346590909091 12.353515625  6.453125 12.412109375  C 6.51278409090909 12.470703125  6.58901515151515 12.5  6.68181818181818 12.5  L 7.31818181818182 12.5  C 7.41098484848485 12.5  7.48721590909091 12.470703125  7.546875 12.412109375  Z M 10.0923295454545 12.412109375  C 10.1519886363636 12.353515625  10.1818181818182 12.2786458333333  10.1818181818182 12.1875  L 10.1818181818182 5.3125  C 10.1818181818182 5.22135416666667  10.1519886363636 5.146484375  10.0923295454545 5.087890625  C 10.0326704545455 5.029296875  9.95643939393939 5  9.86363636363636 5  L 9.22727272727273 5  C 9.1344696969697 5  9.05823863636364 5.029296875  8.99857954545455 5.087890625  C 8.93892045454546 5.146484375  8.90909090909091 5.22135416666667  8.90909090909091 5.3125  L 8.90909090909091 12.1875  C 8.90909090909091 12.2786458333333  8.93892045454546 12.353515625  8.99857954545455 12.412109375  C 9.05823863636364 12.470703125  9.1344696969697 12.5  9.22727272727273 12.5  L 9.86363636363636 12.5  C 9.95643939393939 12.5  10.0326704545455 12.470703125  10.0923295454545 12.412109375  Z M 5.25994318181818 1.357421875  L 4.77272727272727 2.5  L 9.22727272727273 2.5  L 8.75 1.357421875  C 8.70359848484849 1.298828125  8.64725378787879 1.26302083333333  8.58096590909091 1.25  L 5.42897727272727 1.25  C 5.36268939393939 1.26302083333333  5.3063446969697 1.298828125  5.25994318181818 1.357421875  Z M 13.9105113636364 2.587890625  C 13.9701704545455 2.646484375  14 2.72135416666667  14 2.8125  L 14 3.4375  C 14 3.52864583333333  13.9701704545455 3.603515625  13.9105113636364 3.662109375  C 13.8508522727273 3.720703125  13.7746212121212 3.75  13.6818181818182 3.75  L 12.7272727272727 3.75  L 12.7272727272727 13.0078125  C 12.7272727272727 13.5481770833333  12.5714962121212 14.0152994791667  12.2599431818182 14.4091796875  C 11.9483901515152 14.8030598958333  11.5738636363636 15  11.1363636363636 15  L 2.86363636363636 15  C 2.42613636363636 15  2.05160984848485 14.8095703125  1.74005681818182 14.4287109375  C 1.42850378787879 14.0478515625  1.27272727272727 13.5872395833333  1.27272727272727 13.046875  L 1.27272727272727 3.75  L 0.318181818181818 3.75  C 0.225378787878788 3.75  0.149147727272727 3.720703125  0.0894886363636364 3.662109375  C 0.0298295454545455 3.603515625  0 3.52864583333333  0 3.4375  L 0 2.8125  C 0 2.72135416666667  0.0298295454545455 2.646484375  0.0894886363636364 2.587890625  C 0.149147727272727 2.529296875  0.225378787878788 2.5  0.318181818181818 2.5  L 3.390625 2.5  L 4.08664772727273 0.869140625000001  C 4.18607954545455 0.628255208333332  4.36505681818182 0.423177083333332  4.62357954545455 0.253906250000001  C 4.88210227272727 0.0846354166666657  5.14393939393939 0  5.40909090909091 0  L 8.59090909090909 0  C 8.85606060606061 0  9.11789772727273 0.0846354166666657  9.37642045454546 0.253906250000001  C 9.63494318181818 0.423177083333332  9.81392045454546 0.628255208333332  9.91335227272727 0.869140625000001  L 10.609375 2.5  L 13.6818181818182 2.5  C 13.7746212121212 2.5  13.8508522727273 2.529296875  13.9105113636364 2.587890625  Z " fill-rule="nonzero" fill="#000000" stroke="none" transform="matrix(1 0 0 1 994 308 )" />
  </g>
</svg>