<?xml version="1.0" encoding="utf-8"?>
<svg version="1.1" xmlns:xlink="http://www.w3.org/1999/xlink" width="28px" height="28px" xmlns="http://www.w3.org/2000/svg">
  <g transform="matrix(1 0 0 1 -1555 -841 )">
    <path d="M 1556 852.5  A 10.5 10.5 0 0 1 1566.5 842 L 1571.5 842  A 10.5 10.5 0 0 1 1582 852.5 L 1582 857.5  A 10.5 10.5 0 0 1 1571.5 868 L 1566.5 868  A 10.5 10.5 0 0 1 1556 857.5 L 1556 852.5  Z " fill-rule="nonzero" fill="#ffffff" stroke="none" fill-opacity="0" />
    <path d="M 1555.5 852.5  A 11 11 0 0 1 1566.5 841.5 L 1571.5 841.5  A 11 11 0 0 1 1582.5 852.5 L 1582.5 857.5  A 11 11 0 0 1 1571.5 868.5 L 1566.5 868.5  A 11 11 0 0 1 1555.5 857.5 L 1555.5 852.5  Z " stroke-width="1" stroke-dasharray="3,1" stroke="#999999" fill="none" stroke-dashoffset="0.5" />
  </g>
</svg>