<?xml version="1.0" encoding="utf-8"?>
<svg version="1.1" xmlns:xlink="http://www.w3.org/1999/xlink" width="13px" height="13px" xmlns="http://www.w3.org/2000/svg">
  <g transform="matrix(1 0 0 1 -1559 -434 )">
    <path d="M 1565.5 434  C 1569.14 434  1572 436.86  1572 440.5  C 1572 444.14  1569.14 447  1565.5 447  C 1561.86 447  1559 444.14  1559 440.5  C 1559 436.86  1561.86 434  1565.5 434  Z " fill-rule="nonzero" fill="#ffffff" stroke="none" />
    <path d="M 1565.5 434.5  C 1568.86 434.5  1571.5 437.14  1571.5 440.5  C 1571.5 443.86  1568.86 446.5  1565.5 446.5  C 1562.14 446.5  1559.5 443.86  1559.5 440.5  C 1559.5 437.14  1562.14 434.5  1565.5 434.5  Z " stroke-width="1" stroke="#797979" fill="none" />
  </g>
</svg>