<?xml version="1.0" encoding="utf-8"?>
<svg version="1.1" xmlns:xlink="http://www.w3.org/1999/xlink" width="28px" height="28px" xmlns="http://www.w3.org/2000/svg">
  <g transform="matrix(1 0 0 1 -706 -814 )">
    <path d="M 707 825.5  A 10.5 10.5 0 0 1 717.5 815 L 722.5 815  A 10.5 10.5 0 0 1 733 825.5 L 733 830.5  A 10.5 10.5 0 0 1 722.5 841 L 717.5 841  A 10.5 10.5 0 0 1 707 830.5 L 707 825.5  Z " fill-rule="nonzero" fill="#ffffff" stroke="none" fill-opacity="0" />
    <path d="M 706.5 825.5  A 11 11 0 0 1 717.5 814.5 L 722.5 814.5  A 11 11 0 0 1 733.5 825.5 L 733.5 830.5  A 11 11 0 0 1 722.5 841.5 L 717.5 841.5  A 11 11 0 0 1 706.5 830.5 L 706.5 825.5  Z " stroke-width="1" stroke-dasharray="3,1" stroke="#999999" fill="none" stroke-dashoffset="0.5" />
  </g>
</svg>