<?xml version="1.0" encoding="utf-8"?>
<svg version="1.1" xmlns:xlink="http://www.w3.org/1999/xlink" width="4px" height="4px" xmlns="http://www.w3.org/2000/svg">
  <g transform="matrix(1 0 0 1 -963 -713 )">
    <path d="M 965 713  C 966.12 713  967 713.88  967 715  C 967 716.12  966.12 717  965 717  C 963.88 717  963 716.12  963 715  C 963 713.88  963.88 713  965 713  Z " fill-rule="nonzero" fill="#555555" stroke="none" />
    <path d="M 965 713.5  C 965.84 713.5  966.5 714.16  966.5 715  C 966.5 715.84  965.84 716.5  965 716.5  C 964.16 716.5  963.5 715.84  963.5 715  C 963.5 714.16  964.16 713.5  965 713.5  Z " stroke-width="1" stroke="#555555" fill="none" />
  </g>
</svg>