<?xml version="1.0" encoding="utf-8"?>
<svg version="1.1" xmlns:xlink="http://www.w3.org/1999/xlink" width="14px" height="14px" viewBox="955 209  14 14" xmlns="http://www.w3.org/2000/svg">
  <path d="M 962 209  C 965.92 209  969 212.08  969 216  C 969 219.92  965.92 223  962 223  C 958.08 223  955 219.92  955 216  C 955 212.08  958.08 209  962 209  Z " fill-rule="nonzero" fill="#f0f0f0" stroke="none" />
  <path d="M 962 209.5  C 965.64 209.5  968.5 212.36  968.5 216  C 968.5 219.64  965.64 222.5  962 222.5  C 958.36 222.5  955.5 219.64  955.5 216  C 955.5 212.36  958.36 209.5  962 209.5  Z " stroke-width="1" stroke="#797979" fill="none" />
  <path d="M 962 219.5  C 960.04 219.5  958.5 217.96  958.5 216  C 958.5 214.04  960.04 212.5  962 212.5  C 963.96 212.5  965.5 214.04  965.5 216  C 965.5 217.96  963.96 219.5  962 219.5  " fill-rule="nonzero" fill="#797979" stroke="none" />
</svg>