<?xml version="1.0" encoding="utf-8"?>
<svg version="1.1" xmlns:xlink="http://www.w3.org/1999/xlink" width="14px" height="14px" viewBox="955 256  14 14" xmlns="http://www.w3.org/2000/svg">
  <path d="M 962 256  C 965.92 256  969 259.08  969 263  C 969 266.92  965.92 270  962 270  C 958.08 270  955 266.92  955 263  C 955 259.08  958.08 256  962 256  Z " fill-rule="nonzero" fill="#ffffff" stroke="none" />
  <path d="M 962 256.5  C 965.64 256.5  968.5 259.36  968.5 263  C 968.5 266.64  965.64 269.5  962 269.5  C 958.36 269.5  955.5 266.64  955.5 263  C 955.5 259.36  958.36 256.5  962 256.5  Z " stroke-width="1" stroke="#797979" fill="none" />
  <path d="M 962 266.5  C 960.04 266.5  958.5 264.96  958.5 263  C 958.5 261.04  960.04 259.5  962 259.5  C 963.96 259.5  965.5 261.04  965.5 263  C 965.5 264.96  963.96 266.5  962 266.5  " fill-rule="nonzero" fill="#797979" stroke="none" />
</svg>