<?xml version="1.0" encoding="utf-8"?>
<svg version="1.1" xmlns:xlink="http://www.w3.org/1999/xlink" width="14px" height="14px" viewBox="955 533  14 14" xmlns="http://www.w3.org/2000/svg">
  <path d="M 962 533  C 965.92 533  969 536.08  969 540  C 969 543.92  965.92 547  962 547  C 958.08 547  955 543.92  955 540  C 955 536.08  958.08 533  962 533  Z " fill-rule="nonzero" fill="#f0f0f0" stroke="none" />
  <path d="M 962 533.5  C 965.64 533.5  968.5 536.36  968.5 540  C 968.5 543.64  965.64 546.5  962 546.5  C 958.36 546.5  955.5 543.64  955.5 540  C 955.5 536.36  958.36 533.5  962 533.5  Z " stroke-width="1" stroke="#797979" fill="none" />
  <path d="M 962 543.5  C 960.04 543.5  958.5 541.96  958.5 540  C 958.5 538.04  960.04 536.5  962 536.5  C 963.96 536.5  965.5 538.04  965.5 540  C 965.5 541.96  963.96 543.5  962 543.5  " fill-rule="nonzero" fill="#797979" stroke="none" />
</svg>