<?xml version="1.0" encoding="utf-8"?>
<svg version="1.1" xmlns:xlink="http://www.w3.org/1999/xlink" width="14px" height="14px" viewBox="955 437  14 14" xmlns="http://www.w3.org/2000/svg">
  <path d="M 962 437  C 965.92 437  969 440.08  969 444  C 969 447.92  965.92 451  962 451  C 958.08 451  955 447.92  955 444  C 955 440.08  958.08 437  962 437  Z " fill-rule="nonzero" fill="#f0f0f0" stroke="none" />
  <path d="M 962 437.5  C 965.64 437.5  968.5 440.36  968.5 444  C 968.5 447.64  965.64 450.5  962 450.5  C 958.36 450.5  955.5 447.64  955.5 444  C 955.5 440.36  958.36 437.5  962 437.5  Z " stroke-width="1" stroke="#797979" fill="none" />
  <path d="M 962 447.5  C 960.04 447.5  958.5 445.96  958.5 444  C 958.5 442.04  960.04 440.5  962 440.5  C 963.96 440.5  965.5 442.04  965.5 444  C 965.5 445.96  963.96 447.5  962 447.5  " fill-rule="nonzero" fill="#797979" stroke="none" />
</svg>