<?xml version="1.0" encoding="utf-8"?>
<svg version="1.1" xmlns:xlink="http://www.w3.org/1999/xlink" width="14px" height="14px" viewBox="955 631  14 14" xmlns="http://www.w3.org/2000/svg">
  <path d="M 962 631  C 965.92 631  969 634.08  969 638  C 969 641.92  965.92 645  962 645  C 958.08 645  955 641.92  955 638  C 955 634.08  958.08 631  962 631  Z " fill-rule="nonzero" fill="#ffffff" stroke="none" />
  <path d="M 962 631.5  C 965.64 631.5  968.5 634.36  968.5 638  C 968.5 641.64  965.64 644.5  962 644.5  C 958.36 644.5  955.5 641.64  955.5 638  C 955.5 634.36  958.36 631.5  962 631.5  Z " stroke-width="1" stroke="#797979" fill="none" />
  <path d="M 962 641.5  C 960.04 641.5  958.5 639.96  958.5 638  C 958.5 636.04  960.04 634.5  962 634.5  C 963.96 634.5  965.5 636.04  965.5 638  C 965.5 639.96  963.96 641.5  962 641.5  " fill-rule="nonzero" fill="#797979" stroke="none" />
</svg>