<?xml version="1.0" encoding="utf-8"?>
<svg version="1.1" xmlns:xlink="http://www.w3.org/1999/xlink" width="14px" height="14px" viewBox="955 683  14 14" xmlns="http://www.w3.org/2000/svg">
  <path d="M 962 683  C 965.92 683  969 686.08  969 690  C 969 693.92  965.92 697  962 697  C 958.08 697  955 693.92  955 690  C 955 686.08  958.08 683  962 683  Z " fill-rule="nonzero" fill="#ffffff" stroke="none" />
  <path d="M 962 683.5  C 965.64 683.5  968.5 686.36  968.5 690  C 968.5 693.64  965.64 696.5  962 696.5  C 958.36 696.5  955.5 693.64  955.5 690  C 955.5 686.36  958.36 683.5  962 683.5  Z " stroke-width="1" stroke="#797979" fill="none" />
  <path d="M 962 693.5  C 960.04 693.5  958.5 691.96  958.5 690  C 958.5 688.04  960.04 686.5  962 686.5  C 963.96 686.5  965.5 688.04  965.5 690  C 965.5 691.96  963.96 693.5  962 693.5  " fill-rule="nonzero" fill="#797979" stroke="none" />
</svg>