<?xml version="1.0" encoding="utf-8"?>
<svg version="1.1" xmlns:xlink="http://www.w3.org/1999/xlink" width="22px" height="20px" xmlns="http://www.w3.org/2000/svg">
  <g transform="matrix(1 0 0 1 -101 -351 )">
    <path d="M 20.8775510204082 3.99739583333333  C 21.2120848339336 4.12760416666667  21.4717887154862 4.31423611111111  21.656662665066 4.55729166666667  C 22.0088035214086 5.05208333333333  22.0880352140856 5.61197916666667  21.8943577430972 6.23697916666667  L 18.2629051620648 18.0338541666667  C 18.0956382553021 18.5894097222222  17.7589035614246 19.0559895833333  17.2527010804322 19.43359375  C 16.7464985994398 19.8111979166667  16.2072829131653 20  15.6350540216086 20  L 3.44657863145258 20  C 2.7687074829932 20  2.11504601840736 19.7677951388889  1.48559423769508 19.3033854166667  C 0.856142456982793 18.8389756944444  0.418167266906763 18.2682291666667  0.171668667466987 17.5911458333333  C -0.0396158463385354 17.0095486111111  -0.0484193677470988 16.4583333333333  0.145258103241297 15.9375  C 0.145258103241297 15.9027777777778  0.158463385354142 15.7855902777778  0.184873949579832 15.5859375  C 0.211284513805522 15.3862847222222  0.228891556622649 15.2256944444444  0.237695078031213 15.1041666666667  C 0.246498599439776 15.0347222222222  0.233293317326931 14.94140625  0.198079231692677 14.82421875  C 0.162865146058423 14.70703125  0.149659863945578 14.6223958333333  0.158463385354142 14.5703125  C 0.176070428171269 14.4748263888889  0.211284513805522 14.3836805555556  0.264105642256903 14.296875  C 0.316926770708283 14.2100694444444  0.389555822328932 14.1080729166667  0.481992797118848 13.9908854166667  C 0.574429771908764 13.8736979166667  0.647058823529412 13.7717013888889  0.699879951980792 13.6848958333333  C 0.902360944377751 13.3550347222222  1.10044017607043 12.9578993055556  1.29411764705882 12.4934895833333  C 1.48779511804722 12.0290798611111  1.61984793917567 11.6319444444444  1.69027611044418 11.3020833333333  C 1.71668667466987 11.2152777777778  1.71888755502201 11.0850694444444  1.6968787515006 10.9114583333333  C 1.67486994797919 10.7378472222222  1.67266906762705 10.6163194444444  1.69027611044418 10.546875  C 1.71668667466987 10.4513888888889  1.79151660664266 10.3298611111111  1.91476590636255 10.1822916666667  C 2.03801520608243 10.0347222222222  2.11284513805522 9.93489583333333  2.13925570228091 9.8828125  C 2.32412965186074 9.5703125  2.50900360144058 9.17100694444444  2.69387755102041 8.68489583333333  C 2.87875150060024 8.19878472222222  2.98879551820728 7.80815972222222  3.02400960384154 7.51302083333333  C 3.0328131252501 7.43489583333333  3.0218087234894 7.29600694444444  2.99099639855942 7.09635416666667  C 2.96018407362945 6.89670138888889  2.96238495398159 6.77517361111111  2.99759903961585 6.73177083333333  C 3.0328131252501 6.61892361111111  3.1296518607443 6.48654513888889  3.28811524609844 6.33463541666667  C 3.44657863145258 6.18272569444444  3.54341736694678 6.08506944444444  3.57863145258103 6.04166666666667  C 3.74589835934374 5.81597222222222  3.93297318927571 5.44921875  4.13985594237695 4.94140625  C 4.34673869547819 4.43359375  4.46778711484594 4.01475694444444  4.50300120048019 3.68489583333333  C 4.51180472188876 3.61545138888889  4.49859943977591 3.50477430555555  4.46338535414166 3.35286458333333  C 4.4281712685074 3.20095486111111  4.41936774709884 3.0859375  4.43697478991597 3.0078125  C 4.45458183273309 2.93836805555555  4.49419767907163 2.86024305555555  4.55582232893157 2.7734375  C 4.61744697879152 2.68663194444444  4.69667867146859 2.58680555555555  4.79351740696278 2.47395833333333  C 4.89035614245698 2.36111111111111  4.96518607442977 2.26996527777778  5.01800720288115 2.20052083333333  C 5.08843537414966 2.09635416666667  5.16106442577031 1.96397569444444  5.2358943577431 1.80338541666667  C 5.31072428971589 1.64279513888889  5.37675070028011 1.49088541666667  5.43397358943577 1.34765625  C 5.49119647859144 1.20442708333333  5.56162464985994 1.04817708333333  5.6452581032413 0.87890625  C 5.72889155662265 0.709635416666667  5.81472589035614 0.570746527777777  5.90276110444178 0.462239583333333  C 5.99079631852741 0.353732638888886  6.10744297719088 0.251736111111109  6.25270108043217 0.15625  C 6.39795918367347 0.0607638888888862  6.55642256902761 0.0108506944444442  6.7280912364946 0.00651041666666741  C 6.89975990396159 0.00217013888888618  7.10884353741497 0.0260416666666674  7.35534213685474 0.078125  L 7.3421368547419 0.1171875  C 7.67667066826731 0.0390625  7.90116046418567 0  8.015606242497 0  L 18.0648259303721 0  C 18.7162865146058 0  19.218087234894 0.243055555555554  19.5702280912365 0.729166666666667  C 19.922368947579 1.21527777777778  20.0016006402561 1.77951388888889  19.8079231692677 2.421875  L 16.1896758703481 14.21875  C 15.8727490996399 15.2517361111111  15.5580232092837 15.91796875  15.2454981992797 16.2174479166667  C 14.9329731892757 16.5169270833333  14.3673469387755 16.6666666666667  13.5486194477791 16.6666666666667  L 2.07322929171669 16.6666666666667  C 1.83553421368547 16.6666666666667  1.66826730692277 16.7317708333333  1.57142857142857 16.8619791666667  C 1.47458983593437 17.0008680555556  1.47018807523009 17.1875  1.55822328931573 17.421875  C 1.76950780312125 18.0295138888889  2.40336134453782 18.3333333333333  3.45978391356543 18  L 15.6482593037215 18  C 15.9035614245698 18.3333333333333  16.1500600240096 18.2660590277778  16.3877551020408 18.1315104166667  C 16.625450180072 17.9969618055556  16.7795118047219 17.8168402777778  16.8499399759904 17.5911458333333  L 20.8115246098439 4.73958333333333  C 20.8731492597039 4.54861111111111  20.8951580632253 4.30121527777778  20.8775510204082 3.99739583333333  Z M 7.88355342136855 3.75  L 7.6062424969988 4.58333333333333  C 7.57102841136455 4.69618055555555  7.57983193277311 4.79383680555555  7.63265306122449 4.87630208333333  C 7.68547418967587 4.95876736111111  7.77350940376151 5  7.89675870348139 5  L 15.9255702280912 5  C 16.0400160064026 5  16.1522609043617 4.95876736111111  16.2623049219688 4.87630208333333  C 16.3723489395758 4.79383680555555  16.4449779911965 4.69618055555555  16.4801920768307 4.58333333333333  L 16.7575030012005 3.75  C 16.7927170868347 3.63715277777778  16.7839135654262 3.53949652777778  16.7310924369748 3.45703125  C 16.6782713085234 3.37456597222222  16.5902360944378 3.33333333333333  16.4669867947179 3.33333333333333  L 8.43817527010804 3.33333333333333  C 8.32372949179672 3.33333333333333  8.21148459383754 3.37456597222222  8.10144057623049 3.45703125  C 7.99139655862345 3.53949652777778  7.9187675070028 3.63715277777778  7.88355342136855 3.75  Z M 6.7875150060024 7.08333333333333  L 6.51020408163265 7.91666666666667  C 6.4749899959984 8.02951388888889  6.48379351740696 8.12717013888889  6.53661464585834 8.20963541666667  C 6.58943577430972 8.29210069444444  6.67747098839536 8.33333333333333  6.80072028811525 8.33333333333333  L 14.8295318127251 8.33333333333333  C 14.9439775910364 8.33333333333333  15.0562224889956 8.29210069444444  15.1662665066026 8.20963541666667  C 15.2763105242097 8.12717013888889  15.3489395758303 8.02951388888889  15.3841536614646 7.91666666666667  L 15.6614645858343 7.08333333333333  C 15.6966786714686 6.97048611111111  15.68787515006 6.87282986111111  15.6350540216086 6.79036458333333  C 15.5822328931573 6.70789930555556  15.4941976790716 6.66666666666667  15.3709483793517 6.66666666666667  L 7.3421368547419 6.66666666666667  C 7.22769107643057 6.66666666666667  7.11544617847139 6.70789930555556  7.00540216086435 6.79036458333333  C 6.8953581432573 6.87282986111111  6.82272909163666 6.97048611111111  6.7875150060024 7.08333333333333  Z " fill-rule="nonzero" fill="#000000" stroke="none" transform="matrix(1 0 0 1 101 351 )" />
  </g>
</svg>