<?xml version="1.0" encoding="utf-8"?>
<svg version="1.1" xmlns:xlink="http://www.w3.org/1999/xlink" width="26px" height="23px" xmlns="http://www.w3.org/2000/svg">
  <g transform="matrix(1 0 0 1 -99 -286 )">
    <path d="M 19.0647321428571 4.1625266146203  C 19.9739583333333 5.4466524722025  20.4285714285714 6.84504376626449  20.4285714285714 8.35770049680625  C 20.4285714285714 9.870357227348  19.9739583333333 11.26874852141  19.0647321428571 12.5528743789922  C 18.155505952381 13.8370002365744  16.9149925595238 14.85178613674  15.3431919642857 15.597232079489  C 13.7713913690476 16.342678022238  12.061755952381 16.7154009936125  10.2142857142857 16.7154009936125  C 9.38244047619048 16.7154009936125  8.53125 16.6283416134374  7.66071428571429 16.4542228530873  C 6.46130952380952 17.411876035013  5.11681547619048 18.1083510764135  3.62723214285714 18.5436479772889  C 3.27901785714286 18.6415897799858  2.86309523809524 18.7286491601609  2.37946428571429 18.8048261178141  L 2.3359375 18.8048261178141  C 2.22953869047619 18.8048261178141  2.1303943452381 18.7612964277265  2.03850446428571 18.6742370475515  C 1.94661458333333 18.5871776673764  1.89099702380952 18.4729122308966  1.87165178571429 18.3314407381121  C 1.86197916666667 18.2987934705465  1.85714285714286 18.2634255973504  1.85714285714286 18.2253371185238  C 1.85714285714286 18.1872486396972  1.85956101190476 18.1518807665011  1.86439732142857 18.1192334989354  C 1.86923363095238 18.0865862313698  1.87890625 18.0539389638041  1.89341517857143 18.0212916962385  L 1.9296875 17.9396735273243  C 1.9296875 17.9396735273243  1.94661458333333 17.9097468653892  1.98046875 17.8498935415188  C 2.01432291666667 17.7900402176485  2.03366815476191 17.7628341613437  2.03850446428571 17.7682753726047  C 2.04334077380952 17.7737165838656  2.06510416666667 17.7465105275609  2.10379464285714 17.6866572036906  C 2.14248511904762 17.6268038798202  2.16183035714286 17.602318429146  2.16183035714286 17.6132008516678  C 2.21019345238095 17.5479063165366  2.32142857142857 17.411876035013  2.49553571428571 17.2051100070972  C 2.66964285714286 16.9983439791815  2.79538690476191 16.8378282469837  2.87276785714286 16.7235628105039  C 2.95014880952381 16.6092973740241  3.05896577380952 16.4515022474568  3.19921875 16.250177430802  C 3.33947172619048 16.0488526141471  3.46037946428571 15.8393659806009  3.56194196428571 15.6217175301632  C 3.66350446428571 15.4040690797256  3.76264880952381 15.1646557842441  3.859375 14.9034776437189  C 2.65997023809524 14.1199432221434  1.71688988095238 13.1568488289567  1.03013392857143 12.014194464159  C 0.343377976190476 10.8715400993612  0 9.65270877691034  0 8.35770049680625  C 0 6.84504376626449  0.454613095238095 5.4466524722025  1.36383928571429 4.1625266146203  C 2.27306547619048 2.87840075703809  3.51357886904762 1.86361485687248  5.08537946428571 1.11816891412349  C 6.65718005952381 0.372722971374497  8.36681547619048 0  10.2142857142857 0  C 12.061755952381 0  13.7713913690476 0.372722971374497  15.3431919642857 1.11816891412349  C 16.9149925595238 1.86361485687248  18.155505952381 2.87840075703809  19.0647321428571 4.1625266146203  Z M 24.9118303571429 8.78211497515969  C 25.6372767857143 9.94653418500118  26 11.1980127750177  26 12.5365507452094  C 26 13.8424414478353  25.6566220238095 15.0639933759167  24.9698660714286 16.2012065294535  C 24.2831101190476 17.3384196829903  23.3400297619048 18.2987934705465  22.140625 19.0823278921221  C 22.2373511904762 19.3435060326473  22.3364955357143 19.5829193281287  22.4380580357143 19.8005677785664  C 22.5396205357143 20.018216229004  22.6605282738095 20.2277028625503  22.80078125 20.4290276792051  C 22.9410342261905 20.6303524958599  23.0498511904762 20.7881476224273  23.1272321428571 20.902413058907  C 23.2046130952381 21.0166784953868  23.3303571428571 21.1771942275846  23.5044642857143 21.3839602555004  C 23.6785714285714 21.5907262834161  23.7898065476191 21.7267565649397  23.8381696428571 21.792051100071  C 23.8478422619048 21.8029335225929  23.8671875 21.8274189732671  23.8962053571429 21.8655074520937  C 23.9252232142857 21.9035959309203  23.9469866071429 21.930801987225  23.9614955357143 21.9471256210078  C 23.9760044642857 21.9634492547906  23.995349702381 21.9906553110953  24.01953125 22.0287437899219  C 24.043712797619 22.0668322687485  24.0606398809524 22.0967589306837  24.0703125 22.1185237757275  L 24.1065848214286 22.2001419446416  C 24.1065848214286 22.2001419446416  24.1162574404762 22.2327892122072  24.1356026785714 22.2980837473385  C 24.1549479166667 22.3633782824698  24.1573660714286 22.398746155666  24.1428571428571 22.4041873669269  C 24.1283482142857 22.4096285781878  24.1235119047619 22.444996451384  24.1283482142857 22.5102909865153  C 24.0993303571429 22.6626449018216  24.0364583333333 22.7823515495623  23.9397321428571 22.8694109297374  C 23.843005952381 22.9564703099125  23.7366071428571 22.9945587887391  23.6205357142857 22.9836763662172  C 23.1369047619048 22.907499408564  22.7209821428571 22.8204400283889  22.3727678571429 22.722498225692  C 20.8831845238095 22.2872013248167  19.5386904761905 21.5907262834161  18.3392857142857 20.6330731014904  C 17.46875 20.8071918618406  16.6175595238095 20.8942512420156  15.7857142857143 20.8942512420156  C 13.1644345238095 20.8942512420156  10.8816964285714 20.1760113555713  8.9375 18.7395315826828  C 9.49851190476191 18.7830612727703  9.92410714285714 18.8048261178141  10.2142857142857 18.8048261178141  C 11.7715773809524 18.8048261178141  13.2659970238095 18.5599716110717  14.6975446428571 18.0702625975869  C 16.1290922619048 17.5805535841022  17.4058779761905 16.8786373314407  18.5279017857143 15.9645138396026  C 19.7369791666667 14.9633309675893  20.6655505952381 13.8097941802697  21.3136160714286 12.5039034776437  C 21.961681547619 11.1980127750177  22.2857142857143 9.81594511473858  22.2857142857143 8.35770049680625  C 22.2857142857143 7.51975396262124  22.1744791666667 6.69268985095813  21.9520089285714 5.87650816181689  C 23.1997767857143 6.64916016087059  24.1863839285714 7.61769576531819  24.9118303571429 8.78211497515969  Z " fill-rule="nonzero" fill="#000000" stroke="none" transform="matrix(1 0 0 1 99 286 )" />
  </g>
</svg>