<?xml version="1.0" encoding="utf-8"?>
<svg version="1.1" xmlns:xlink="http://www.w3.org/1999/xlink" width="16px" height="20px" xmlns="http://www.w3.org/2000/svg">
  <g transform="matrix(1 0 0 1 -104 -416 )">
    <path d="M 15.8920454545455 18.6774553571429  C 15.9640151515152 18.7481398809524  16 18.8318452380952  16 18.9285714285714  L 16 19.6428571428571  C 16 19.7395833333333  15.9640151515152 19.8232886904762  15.8920454545455 19.8939732142857  C 15.8200757575758 19.9646577380952  15.7348484848485 20  15.6363636363636 20  L 0.363636363636364 20  C 0.265151515151515 20  0.179924242424242 19.9646577380952  0.107954545454545 19.8939732142857  C 0.0359848484848485 19.8232886904762  0 19.7395833333333  0 19.6428571428571  L 0 18.9285714285714  C 0 18.8318452380952  0.0359848484848485 18.7481398809524  0.107954545454545 18.6774553571429  C 0.179924242424242 18.6067708333333  0.265151515151515 18.5714285714286  0.363636363636364 18.5714285714286  L 15.6363636363636 18.5714285714286  C 15.7348484848485 18.5714285714286  15.8200757575758 18.6067708333333  15.8920454545455 18.6774553571429  Z M 12.7784090909091 5.08928571428571  C 12.9867424242424 5.72916666666667  13.0909090909091 6.41369047619047  13.0909090909091 7.14285714285714  C 13.0909090909091 7.72321428571429  12.9981060606061 8.25892857142857  12.8125 8.75  C 12.6268939393939 9.24107142857143  12.3844696969697 9.65959821428571  12.0852272727273 10.0055803571429  C 11.7859848484848 10.3515625  11.4545454545455 10.678943452381  11.0909090909091 10.9877232142857  C 10.7272727272727 11.2965029761905  10.3636363636364 11.5848214285714  10 11.8526785714286  C 9.63636363636364 12.1205357142857  9.30492424242424 12.3883928571429  9.00568181818182 12.65625  C 8.70643939393939 12.9241071428571  8.46401515151515 13.227306547619  8.27840909090909 13.5658482142857  C 8.09280303030303 13.9043898809524  8 14.2633928571429  8 14.6428571428571  C 8 15.3571428571429  8.25378787878788 16.1904761904762  8.76136363636364 17.1428571428571  L 8.71590909090909 17.1316964285714  L 8.72727272727273 17.1428571428571  C 8.04545454545455 16.8377976190476  7.43939393939394 16.5290178571429  6.90909090909091 16.2165178571429  C 6.37878787878788 15.9040178571429  5.85416666666667 15.531994047619  5.33522727272727 15.1004464285714  C 4.81628787878788 14.6688988095238  4.38636363636364 14.2131696428571  4.04545454545455 13.7332589285714  C 3.70454545454545 13.2533482142857  3.42992424242424 12.6934523809524  3.22159090909091 12.0535714285714  C 3.01325757575758 11.4136904761905  2.90909090909091 10.7291666666667  2.90909090909091 10  C 2.90909090909091 9.41964285714286  3.00189393939394 8.88392857142857  3.1875 8.39285714285714  C 3.37310606060606 7.90178571428571  3.6155303030303 7.48325892857143  3.91477272727273 7.13727678571429  C 4.21401515151515 6.79129464285714  4.54545454545455 6.46391369047619  4.90909090909091 6.15513392857143  C 5.27272727272727 5.84635416666667  5.63636363636364 5.55803571428571  6 5.29017857142857  C 6.36363636363636 5.02232142857143  6.69507575757576 4.75446428571429  6.99431818181818 4.48660714285714  C 7.29356060606061 4.21875  7.53598484848485 3.9155505952381  7.72159090909091 3.57700892857143  C 7.90719696969697 3.23846726190476  8 2.87946428571429  8 2.5  C 8 1.80059523809524  7.75 0.967261904761902  7.25 0  L 7.28409090909091 0.011160714285714  L 7.27272727272727 0  C 7.95454545454545 0.305059523809523  8.56060606060606 0.613839285714286  9.09090909090909 0.926339285714286  C 9.62121212121212 1.23883928571429  10.1458333333333 1.6108630952381  10.6647727272727 2.04241071428571  C 11.1837121212121 2.47395833333333  11.6136363636364 2.9296875  11.9545454545455 3.40959821428571  C 12.2954545454545 3.88950892857143  12.5700757575758 4.44940476190476  12.7784090909091 5.08928571428571  Z " fill-rule="nonzero" fill="#000000" stroke="none" transform="matrix(1 0 0 1 104 416 )" />
  </g>
</svg>